<svg
    xmlns="http://www.w3.org/2000/svg"
    viewBox="0 0 512 512"
    id="vector"
    width="512px"
    height="512px">
    <g id="group">
        <path
            id="path_1"
            d="M 155 272 C 161.125 272 161 276.5 161 276.5 L 161 311 C 161 312.1 161.669 313.602 162.487 314.338 L 175.5 332.75 C 176.318 333.486 179.244 336.327 180 337.125 L 188.25 343.5 C 189.006 344.298 190.209 341.375 190.465 342.445 L 197.19 370.554 C 197.446 371.624 197.313 373.331 196.895 374.349 L 192.321 368 C 191.903 369.018 186.17 371.838 185.459 370.999 L 169.294 365.024 C 168.583 364.185 167.868 362.608 167.707 361.52 L 164.985 343.247 C 164.823 342.159 164.235 340.492 163.679 339.543 L 150.012 316.225 C 149.455 315.276 149 313.6 149 312.5 L 149 276 C 149 276 148.875 272 155 272 Z"
            fill="#bfa072"
            stroke-width="1"/>
        <path
            id="path_2"
            d="M 148 267 C 154.125 267 154 271.5 154 271.5 L 154 306 C 154 307.1 154.669 308.602 155.487 309.338 L 168.5 327.75 C 169.318 328.486 172.244 331.327 173 332.125 L 181.25 338.5 C 182.006 339.298 183.209 336.375 183.465 337.445 L 190.19 365.554 C 190.446 366.624 190.313 368.331 189.895 369.349 L 193.333 375.154 C 192.915 376.172 177.529 360.002 179.666 373.001 L 162.292 360.025 C 161.581 359.186 160.866 357.609 160.705 356.521 L 157.983 338.248 C 157.821 337.16 157.233 335.493 156.677 334.544 L 143.01 311.226 C 142.455 310.276 142 308.6 142 307.5 L 142 271 C 142 271 141.875 267 148 267 Z"
            fill="#c9a978"
            stroke-width="1"/>
        <path
            id="path_3"
            d="M 138 260 C 144.125 260 144 264.5 144 264.5 L 144 299 C 144 300.1 144.669 301.602 145.487 302.338 L 158.5 320.75 C 159.318 321.486 162.244 324.327 163 325.125 L 171.25 331.5 C 172.006 332.298 173.209 329.375 173.465 330.445 L 180.19 358.554 C 180.446 359.624 180.313 361.331 179.895 362.349 L 180.321 375 C 179.903 376.018 174.17 378.838 173.459 377.999 L 152.294 353.024 C 151.583 352.185 150.868 350.608 150.707 349.52 L 147.985 331.247 C 147.823 330.159 147.235 328.492 146.679 327.543 L 133.012 304.225 C 132.455 303.276 132 301.6 132 300.5 L 132 264 C 132 264 131.875 260 138 260 Z"
            fill="#d4b17e"
            stroke-width="1"/>
        <path
            id="path_4"
            d="M 358 272 C 351.875 272 352 276.5 352 276.5 L 352 311 C 352 312.1 351.331 313.602 350.513 314.338 L 337.5 332.75 C 336.682 333.486 333.756 336.327 333 337.125 L 324.75 343.5 C 323.994 344.298 322.791 341.375 322.535 342.445 L 315.81 370.554 C 315.554 371.624 315.687 373.331 316.105 374.349 L 320.679 368 C 321.097 369.018 326.83 371.838 327.541 370.999 L 343.706 365.024 C 344.417 364.185 345.132 362.608 345.293 361.52 L 348.015 343.247 C 348.177 342.159 348.765 340.492 349.321 339.543 L 362.988 316.225 C 363.544 315.276 363.999 313.599 363.999 312.499 L 363.999 276 C 364 276 364.125 272 358 272 Z"
            fill="#bfa072"
            stroke-width="1"/>
        <path
            id="path_5"
            d="M 365 267 C 358.875 267 359 271.5 359 271.5 L 359 306 C 359 307.1 358.331 308.602 357.513 309.338 L 344.5 327.75 C 343.682 328.486 340.756 331.327 340 332.125 L 331.75 338.5 C 330.994 339.298 329.791 336.375 329.535 337.445 L 322.81 365.554 C 322.554 366.624 322.687 368.331 323.105 369.349 L 319.667 375.154 C 320.085 376.172 335.471 360.002 333.334 373.001 L 350.708 360.025 C 351.419 359.186 352.134 357.609 352.295 356.521 L 355.017 338.248 C 355.179 337.16 355.767 335.493 356.323 334.544 L 369.99 311.226 C 370.546 310.277 371.001 308.6 371.001 307.5 L 371.001 271 C 371 271 371.125 267 365 267 Z"
            fill="#c9a978"
            stroke-width="1"/>
        <path
            id="path_6"
            d="M 375 260 C 368.875 260 369 264.5 369 264.5 L 369 299 C 369 300.1 368.331 301.602 367.513 302.338 L 354.5 320.75 C 353.682 321.486 350.756 324.327 350 325.125 L 341.75 331.5 C 340.994 332.298 339.791 329.375 339.535 330.445 L 332.81 358.554 C 332.554 359.624 332.687 361.331 333.105 362.349 L 332.679 375 C 333.097 376.018 338.83 378.838 339.541 377.999 L 360.706 353.024 C 361.417 352.185 362.132 350.608 362.293 349.52 L 365.015 331.247 C 365.177 330.159 365.765 328.492 366.321 327.543 L 379.988 304.225 C 380.544 303.276 380.999 301.599 380.999 300.499 L 380.999 264 C 381 264 381.125 260 375 260 Z"
            fill="#d4b17e"
            stroke-width="1"/>
        <path
            id="path_7"
            d="M 201.129 209.574 C 163.365 209.574 135.239 187.313 119.791 145.197 C 108.543 114.534 108.018 84.362 108 83.093 C 107.975 81.221 108.702 79.416 110.017 78.083 C 111.333 76.75 113.127 76 115 76 L 180 76 C 183.866 76 187 79.134 187 83 C 187 86.866 183.866 90 180 90 L 122.392 90 C 123.203 100.388 125.662 120.681 133.045 140.675 C 146.497 177.104 169.404 195.574 201.13 195.574 C 204.996 195.574 208.13 198.708 208.13 202.574 C 208.13 206.44 204.996 209.574 201.129 209.574 Z"
            fill="#f59d00"
            stroke-width="1"/>
        <path
            id="path_8"
            d="M 310.871 209.574 C 307.005 209.574 303.871 206.44 303.871 202.574 C 303.871 198.708 307.005 195.574 310.871 195.574 C 342.687 195.574 365.631 177.003 379.066 140.377 C 386.385 120.422 388.815 100.319 389.615 90 L 332 90 C 328.134 90 325 86.866 325 83 C 325 79.134 328.134 76 332 76 L 397 76 C 398.873 76 400.667 76.75 401.982 78.083 C 403.297 79.416 404.024 81.221 403.999 83.093 C 403.982 84.363 403.456 114.534 392.208 145.197 C 376.761 187.313 348.634 209.574 310.871 209.574 Z"
            fill="#e87e04"
            stroke-width="1"/>
        <path
            id="path_9"
            d="M 256 54 L 169 54 C 169 54 169 230 242 230 L 242 259.878 L 256 261 L 256 54 Z"
            fill="#f4cc20"
            stroke-width="1"/>
        <path
            id="path_10"
            d="M 256 54 L 343 54 C 343 54 343 230 270 230 L 270 259.878 L 256 261 L 256 54 Z"
            fill="#f59d00"
            stroke-width="1"/>
        <path
            id="path_11"
            d="M 359 359 C 359 363.4 355.4 367 351 367 L 162 367 C 157.6 367 154 363.4 154 359 L 154 284 C 154 279.6 157.6 276 162 276 L 351 276 C 355.4 276 359 279.6 359 284 L 359 359 Z"
            fill="#33495f"
            stroke-width="1"/>
        <path
            id="path_12"
            d="M 335 340 C 335 342.2 333.2 344 331 344 L 182 344 C 179.8 344 178 342.2 178 340 L 178 304 C 178 301.8 179.8 300 182 300 L 331 300 C 333.2 300 335 301.8 335 304 L 335 340 Z"
            fill="#ecf0f1"
            stroke-width="1"/>
        <path
            id="path_13"
            d="M 351 276 L 256 276 L 256 367 L 351 367 C 355.4 367 359 363.4 359 359 L 359 284 C 359 279.6 355.4 276 351 276 Z"
            fill="#2b3e51"
            stroke-width="1"/>
        <path
            id="path_14"
            d="M 256 276 L 256 265 L 206 265 C 206 265 180 270.679 180 276.357 L 256 276 Z"
            fill="#f4cc20"
            stroke-width="1"/>
        <path
            id="path_15"
            d="M 218 256 L 256 256 L 256 265 L 218 265 Z M 256 276 L 256 265 L 306 265 C 306 265 332 270.679 332 276.357 L 256 276 Z"
            fill="#f59d00"
            stroke-width="1"/>
        <path
            id="path_16"
            d="M 256 256 L 294 256 L 294 265 L 256 265 Z"
            fill="#e87e04"
            stroke-width="1"/>
        <path
            id="path_17"
            d="M 331 300 L 256 300 L 256 344 L 331 344 C 333.2 344 335 342.2 335 340 L 335 304 C 335 301.8 333.2 300 331 300 Z"
            fill="#bdc3c7"
            stroke-width="1"/>
        <path
            id="path_18"
            d="M 301 408 L 361 408 L 361 422 L 301 422 Z"
            fill="#ecf0f1"
            stroke-width="1"/>
        <path
            id="path_19"
            d="M 301 408 L 331 408 L 331 422 L 301 422 Z"
            fill="#bdc3c7"
            stroke-width="1"/>
        <path
            id="path_20"
            d="M 296 508.883 C 320.682 505.01 344.191 497.611 366 487.217 L 366 422 L 296 422 L 296 508.883 Z"
            fill="#33495f"
            stroke-width="1"/>
        <path
            id="path_21"
            d="M 296 508.883 C 307.962 507.006 319.648 504.299 331 500.826 L 331 422 L 296 422 L 296 508.883 Z"
            fill="#2b3e51"
            stroke-width="1"/>
        <path
            id="path_22"
            d="M 295.499 205 C 294.561 205 293.619 204.672 292.859 204.004 C 291.2 202.545 291.038 200.018 292.497 198.358 C 305.677 183.37 312.57 160.458 316.032 143.876 C 316.484 141.714 318.601 140.324 320.765 140.777 C 322.928 141.229 324.315 143.348 323.863 145.51 C 320.205 163.033 312.836 187.343 298.505 203.641 C 297.713 204.541 296.608 205 295.499 205 Z M 323.485 126.096 C 323.347 126.096 323.207 126.089 323.067 126.075 C 320.87 125.846 319.274 123.881 319.502 121.683 C 319.884 118.008 320.005 115.807 320.006 115.785 C 320.126 113.58 322.012 111.852 324.215 112.008 C 326.421 112.126 328.112 114.01 327.994 116.216 C 327.989 116.312 327.863 118.615 327.458 122.51 C 327.245 124.565 325.508 126.096 323.485 126.096 Z"
            fill="#f4cc20"
            stroke-width="1"/>
        <path
            id="path_23"
            d="M 351.705 311.127 C 350.648 311.127 349.633 311.547 348.885 312.295 C 348.137 313.043 347.717 314.058 347.717 315.115 C 347.717 316.172 348.137 317.187 348.885 317.935 C 349.633 318.683 350.648 319.103 351.705 319.103 C 352.762 319.103 353.777 318.683 354.525 317.935 C 355.273 317.187 355.693 316.172 355.693 315.115 C 355.693 314.058 355.273 313.043 354.525 312.295 C 353.777 311.547 352.762 311.127 351.705 311.127 Z"
            fill="#ecf0f1"
            stroke-width="1"/>
        <path
            id="path_24"
            d="M 384 264 C 377.875 264 378 268.5 378 268.5 L 378 303 C 378 304.1 377.331 305.602 376.513 306.338 L 363.5 324.75 C 362.682 325.486 360.09 331.035 359.333 331.833 L 355.832 333.328 L 356.813 316.821 C 356.813 316.821 359.132 309.777 352.239 309.777 C 345.347 309.777 345.663 315.956 345.663 315.956 L 341.808 335.395 C 341.808 335.395 312.583 337.999 324.369 366.999 L 297 366.999 L 312 381.999 L 312 407.999 L 349 407.999 L 349 381.999 L 369.936 357.024 C 370.647 356.185 371.247 354.608 371.409 353.52 L 374.074 335.247 C 374.236 334.159 374.795 332.492 375.351 331.543 L 389.003 308.225 C 389.559 307.276 390 305.599 390 304.499 L 390 268 C 390 268 390.125 264 384 264 Z"
            fill="#e5bf88"
            stroke-width="1"/>
        <path
            id="path_25"
            d="M 324.368 367 L 297 367 L 305.758 375.758 Z"
            fill="#bfa072"
            stroke-width="1"/>
        <path
            id="path_26"
            d="M 351.705 311.127 C 350.648 311.127 349.633 311.547 348.885 312.295 C 348.137 313.043 347.717 314.058 347.717 315.115 C 347.717 316.172 348.137 317.187 348.885 317.935 C 349.633 318.683 350.648 319.103 351.705 319.103 C 352.762 319.103 353.777 318.683 354.525 317.935 C 355.273 317.187 355.693 316.172 355.693 315.115 C 355.693 314.058 355.273 313.043 354.525 312.295 C 353.777 311.547 352.762 311.127 351.705 311.127 Z"
            fill="#ecf0f1"
            stroke-width="1"/>
        <path
            id="path_27"
            d="M 152 408 L 212 408 L 212 422 L 152 422 Z"
            fill="#bdc3c7"
            stroke-width="1"/>
        <path
            id="path_28"
            d="M 182 408 L 212 408 L 212 422 L 182 422 Z"
            fill="#ecf0f1"
            stroke-width="1"/>
        <path
            id="path_29"
            d="M 147 487.684 C 168.824 497.969 192.328 505.278 217 509.048 L 217 422 L 147 422 L 147 487.684 Z"
            fill="#2b3e51"
            stroke-width="1"/>
        <path
            id="path_30"
            d="M 182 501.123 C 193.356 504.547 205.039 507.22 217 509.048 L 217 422 L 182 422 L 182 501.123 Z"
            fill="#33495f"
            stroke-width="1"/>
        <path
            id="path_31"
            d="M 161.295 311.127 C 160.238 311.127 159.223 311.547 158.475 312.295 C 157.727 313.043 157.307 314.058 157.307 315.115 C 157.307 316.172 157.727 317.187 158.475 317.935 C 159.223 318.683 160.238 319.103 161.295 319.103 C 162.352 319.103 163.367 318.683 164.115 317.935 C 164.863 317.187 165.283 316.172 165.283 315.115 C 165.283 314.058 164.863 313.043 164.115 312.295 C 163.367 311.547 162.352 311.127 161.295 311.127 Z"
            fill="#ecf0f1"
            stroke-width="1"/>
        <path
            id="path_32"
            d="M 129 264 C 135.125 264 135 268.5 135 268.5 L 135 303 C 135 304.1 135.669 305.602 136.487 306.338 L 149.5 324.75 C 150.318 325.486 152.91 331.035 153.667 331.833 L 157.168 333.328 L 156.187 316.821 C 156.187 316.821 153.868 309.777 160.761 309.777 C 167.653 309.777 167.337 315.956 167.337 315.956 L 171.192 335.395 C 171.192 335.395 200.417 337.999 188.631 366.999 L 216 366.999 L 201 381.999 L 201 407.999 L 164 407.999 L 164 381.999 L 143.064 357.024 C 142.353 356.185 141.753 354.608 141.591 353.52 L 138.926 335.247 C 138.764 334.159 138.205 332.492 137.649 331.543 L 123.997 308.225 C 123.441 307.276 123 305.6 123 304.5 L 123 268 C 123 268 122.875 264 129 264 Z"
            fill="#e5bf88"
            stroke-width="1"/>
        <path
            id="path_33"
            d="M 188.632 367 L 216 367 L 207.242 375.758 Z"
            fill="#bfa072"
            stroke-width="1"/>
        <path
            id="path_34"
            d="M 161.295 311.127 C 160.238 311.127 159.223 311.547 158.475 312.295 C 157.727 313.043 157.307 314.058 157.307 315.115 C 157.307 316.172 157.727 317.187 158.475 317.935 C 159.223 318.683 160.238 319.103 161.295 319.103 C 162.352 319.103 163.367 318.683 164.115 317.935 C 164.863 317.187 165.283 316.172 165.283 315.115 C 165.283 314.058 164.863 313.043 164.115 312.295 C 163.367 311.547 162.352 311.127 161.295 311.127 Z"
            fill="#ecf0f1"
            stroke-width="1"/>
    </g>
</svg>
